<svg version="1.1" id="Layer_1" xmlns="http://www.w3.org/2000/svg" x="0" y="0" width="15.9" height="27" viewBox="0 0 15.9 27" xml:space="preserve"><style>.st0{fill:#ff1a1a}</style><g id="Layer_2_1_"><g id="Layer_1-2"><path class="st0" d="M5.2 16.1l.9-.2h.1c.3-.1.5-.2.6-.5.1-.2.2-.4.1-.7 0-.1-.1-.2-.2-.3-.1-.1-.2-.2-.4-.3-.2-.1-.3-.2-.5-.2l-1-.4-1.7-.6c-.4-.1-.7-.2-1-.3H2c-.2-.1-.5-.1-.8-.1-.1 0-.3 0-.4.1-.1 0-.2.1-.3.1 0 .1-.1.1-.1.2s-.1.1-.1.2l-.1.2c-.1.3-.2.9-.2 1.5s.1 1.2.3 1.7l.3.3c.2.1.4.2.6.2.3 0 .7 0 1-.1l3-.8zM15.4 11.2c-.3-.5-.6-1-1-1.4l-.2-.1-.2-.2h-.2c-.1-.1-.3-.1-.4-.1-.1 0-.3 0-.4.1-.2.1-.4.3-.6.5l-.1.1-.7.7-1.3 1.2-.7.8-.4.4c-.1.1-.2.3-.2.5v.4c.1.5.6.9 1.2.8h.1l4-.9.9-.3c.2-.1.4-.2.5-.4.1-.1.1-.3.1-.4.1-.6-.1-1.2-.4-1.7zM8.3 12.9c.2-.4.3-.9.3-1.4.1-1.5.2-2.9.2-4.4 0-.5.1-1.1.1-1.6s-.1-1-.3-1.4c-.5-.7-1.6-.6-2.4-.5l-.6.1-.7.2c-.7.2-1.7.7-1.9 1.5 0 .5.1 1 .3 1.4.2.5.5 1 .8 1.5l2.1 3.9c.2.4.5.8.9 1.1h.1c.2.1.4.1.6 0 .1-.2.3-.2.5-.4zM8 16.9c-.1-.2-.3-.3-.5-.4-.2-.1-.4-.1-.5 0h-.1c-.1 0-.1.1-.2.1-.2.1-.3.3-.4.5l-.1.1-.6.9c-.4.5-.7 1-1.1 1.5-.2.3-.4.6-.6.8l-.1.1c-.2.2-.3.4-.3.7v.4c0 .1.1.3.1.4 0 .1.1.1.1.2l.1.1.2.2c.4.3.9.5 1.4.7.4.1.9.2 1.3.2h.5c.1 0 .1 0 .2-.1.1 0 .2-.1.3-.2.1-.1.2-.2.2-.3.1-.2.1-.5.1-.7v-.2c0-.3 0-.6.1-1 0-.6.1-1.2.1-1.8V18c0-.3 0-.5-.1-.8 0-.1-.1-.2-.1-.3zM15.2 18.6c-.2-.2-.4-.3-.6-.5l-.2-.1c-.2-.1-.5-.3-.9-.5l-1.6-.9-1-.5-.1-.1c-.2-.1-.4-.2-.6-.2H9.9c-.2 0-.4.1-.5.3-.1.1-.2.3-.2.5v.4c.1.3.1.5.3.7l.5 1c.3.5.6 1.1.9 1.6.2.4.4.6.5.9l.1.1c.1.2.3.4.5.6.1.1.2.2.3.2.1 0 .3.1.4 0h.2c.1 0 .1 0 .2-.1l.2-.1c.4-.2.7-.5 1.1-.8.4-.4.7-.8 1-1.3l.1-.2.1-.2v-.2c0-.1 0-.3-.1-.4-.2.1-.3-.1-.3-.2z"/></g></g></svg>