<svg version="1.1" id="Layer_1" xmlns="http://www.w3.org/2000/svg" x="0" y="0" width="52" height="27" viewBox="0 0 52 27" xml:space="preserve"><style>.st0{fill:#ff1a1a}</style><path class="st0" d="M42.1 15.2l.8-.2h.1c.2-.1.4-.2.6-.4.1-.2.2-.5.1-.7 0-.1-.1-.2-.1-.3l-.3-.3c-.2-.1-.3-.2-.5-.2l-.9-.3c-.5-.2-1-.4-1.6-.6l-.9-.3h-.1c-.2-.1-.5-.1-.7-.1-.1 0-.2 0-.3.1-.1 0-.2.1-.3.2l-.1.1-.1.2c0 .1-.1.1-.1.2-.2.5-.3 1.1-.2 1.6 0 .5.1 1.1.3 1.5.1.1.1.2.2.3.2.1.4.2.6.2.3 0 .6 0 .9-.1l2.6-.9zM51.6 10.7c-.2-.5-.6-.9-.9-1.3l-.2-.1-.2-.1-.1-.2h-.4c-.1 0-.2 0-.3.1-.2.1-.4.3-.6.4l-.1.1-.7.7-1.2 1.2-.7.7c-.1.1-.2.3-.3.4-.1.1-.1.3-.2.4v.4c.1.5.6.8 1.1.7h.1l3.7-.9c.3-.1.6-.1.8-.3.2-.1.3-.2.5-.4.1-.1.1-.2.1-.4 0-.4-.2-1-.4-1.4zM45 12.2c.2-.4.3-.8.3-1.2.1-1.4.2-2.7.2-4.1 0-.5.1-1 0-1.6 0-.4-.1-.9-.3-1.3-.5-.6-1.5-.6-2.2-.5-.2 0-.4.1-.6.1-.2 0-.4.1-.6.2-.7.2-1.6.6-1.8 1.4 0 .4.1.9.3 1.3.2.5.5.9.7 1.4.7 1.2 1.3 2.4 2 3.6.2.4.4.8.8 1h.1c.2.1.4.1.5 0 .2 0 .4-.1.6-.3zM44.7 15.9c-.1-.1-.2-.3-.4-.3-.2-.1-.4-.1-.5 0h-.1c-.1 0-.1.1-.2.1-.2.1-.3.3-.4.4l-.1.2-.6.8c-.3.5-.7.9-1 1.4-.2.3-.4.6-.5.8l-.1.1c-.1.2-.3.4-.3.6v.4c0 .1.1.2.1.4l.1.2c0 .1.1.1.1.1l.2.1c.8.5 1.6.8 2.5.9H44.1c.1 0 .2-.1.3-.2.1-.1.2-.2.2-.3.1-.2.1-.5.1-.7v-.1-1c0-.6 0-1.1.1-1.7v-1c0-.2 0-.5-.1-.7v-.5zM51.4 17.5c-.2-.2-.4-.3-.6-.4l-.2-.1c-.2-.1-.5-.3-.8-.5l-1.5-.8-.9-.5s-.1 0-.1-.1c-.2 0-.3-.1-.5-.1H46.5c-.2 0-.3.1-.5.2-.1.1-.2.3-.2.5v.3c.1.2.1.5.3.7l.5.9c.3.5.5 1 .8 1.5.2.3.3.6.5.8 0 0 0 .1.1.1.1.2.3.4.4.6.1.1.2.2.3.2H49.3l.2-.1.2-.1c.4-.2.7-.4 1-.7.4-.3.7-.7.9-1.2l.1-.2v-.2-.2-.4c-.2 0-.2-.1-.3-.2z"/><path d="M20.9 8.8c0-.7.6-1.3 1.3-1.3.7 0 1.3.6 1.3 1.3v10.4c0 .7-.6 1.3-1.3 1.3-.7 0-1.3-.6-1.3-1.3V8.8zm-1.2 6.4c0 .3-.1.6-.3.9-.2.2-.6.4-.9.4h-5.6c.1.4.3.7.6 1 .2.2.3.3.5.4.3.2.6.3 1 .3.5 0 1-.1 1.4-.4.3-.2.6-.3 1-.4.3-.1.7 0 .9.2.3.3.4.7.3 1.1-.2.5-.5.9-.9 1.1-.2.1-.5.2-.7.3-.6.2-1.3.3-2 .3h-.5c-.2 0-.4-.1-.5-.1-.3 0-.6-.1-.8-.2-.3-.1-.5-.3-.8-.4-.2-.2-.5-.4-.7-.6-.2-.2-.4-.4-.5-.7-.5-.9-.8-1.9-.8-2.9.1-1 .4-2 1-2.8l.2-.3.1-.1c.6-.6 1.3-1.1 2.1-1.3.8-.2 1.7-.2 2.5 0s1.6.7 2.1 1.3c.1.1.2.2.3.4.4.5.6 1.1.8 1.7.1.3.2.6.2.8zm-6-1.7c-.4.3-.7.8-.8 1.3h4.5c-.1-.5-.4-1-.8-1.3-.9-.6-2.1-.6-2.9 0zm17-2.7c-1.2 0-2.2.5-3 1.4 0-.7-.6-1.3-1.3-1.3-.7 0-1.3.6-1.3 1.3v10c-.1.7.5 1.4 1.2 1.4.7.1 1.4-.5 1.4-1.2V19.1c.8.9 1.8 1.4 3 1.4 2.5-.2 4.4-2.3 4.2-4.8 0-2.7-1.9-4.9-4.2-4.9zm-.6 7.5c-1.5.1-2.7-1-2.9-2.4s1-2.7 2.4-2.9c1.5-.1 2.7 1 2.9 2.4v.2c.1 1.5-1 2.6-2.4 2.7zm-21.6-2l-.4 1c-.2.4-.4.8-.6 1.3l-.2.4c-.8 1.8-1.8 4-3.9 4.5-1.2.3-2.4-.1-3.2-1-.4-.7-.2-1.5.4-1.8.3-.2.6-.2 1-.1.2.1.3.1.5.2.3.1.6.2.9.2.3-.1.6-.3.7-.5.2-.3.4-.6.5-1l-.7-1.3c-.1-.2-.2-.5-.3-.6-.2-.4-.3-.6-.5-.9-.3-.6-.4-.7-.5-1-.3-.6-.7-1.2-1-1.8-.5-.6-.7-1.4-.5-2.1.3-.7 1-1 1.6-.8.7.2 1 .8 1.2 1.4 0 .1.1.2.2.3.4.9.9 1.8 1.3 2.6.1.1.1.2.2.4l.2.5c0 .1.1.2.1.2 0 .1.1.2.1.2l.6-1.5.6-1.5.1-.3c.1-.1.2-.3.2-.5l.1-.2c.3-.6.6-1.4 1.3-1.6.5-.2 1.1 0 1.4.5.1.2.2.5.2.7 0 .6-.2 1.1-.5 1.6 0 .1-.1.2-.2.4v.1L9 15.4c-.1.2-.2.5-.3.7s-.2.1-.2.2z" fill-rule="evenodd" clip-rule="evenodd"/></svg>