<?xml version="1.0" encoding="UTF-8"?> <!-- Generator: Adobe Illustrator 25.4.1, SVG Export Plug-In . SVG Version: 6.00 Build 0) --> <svg xmlns="http://www.w3.org/2000/svg" xmlns:xlink="http://www.w3.org/1999/xlink" version="1.1" id="Layer_1" x="0px" y="0px" viewBox="0 0 622 103.6" style="enable-background:new 0 0 622 103.6;" xml:space="preserve"> <style type="text/css"> .st0{fill:#FF1A1A;} .st1{fill-rule:evenodd;clip-rule:evenodd;} </style> <path d="M321.9,60.2h-7.6v26.4h-4.5V60.2h-5.4v-2.1l5.4-1.6v-1.7c0-7.4,3.2-11,9.7-11c1.6,0,3.4,0.3,5.6,1l-1.2,3.6 c-1.8-0.6-3.2-0.8-4.5-0.8c-1.7,0-3,0.6-3.8,1.7c-0.8,1.1-1.2,3-1.2,5.5v1.9h7.6V60.2z M353.1,71.6c0,4.9-1.2,8.7-3.7,11.5 c-2.5,2.7-5.9,4.1-10.2,4.1c-2.7,0-5.1-0.6-7.1-1.9c-2.1-1.3-3.7-3.1-4.8-5.4c-1.1-2.4-1.7-5.1-1.7-8.3c0-4.9,1.2-8.7,3.7-11.4 c2.4-2.7,5.8-4.1,10.2-4.1c4.2,0,7.5,1.4,10,4.2C351.9,63.1,353.1,66.8,353.1,71.6z M330.3,71.6c0,3.8,0.8,6.7,2.3,8.8 c1.5,2,3.8,3,6.8,3s5.2-1,6.8-3c1.6-2,2.3-4.9,2.3-8.8c0-3.8-0.8-6.7-2.3-8.7c-1.5-2-3.8-3-6.8-3c-3,0-5.2,1-6.7,2.9 C331,64.8,330.3,67.7,330.3,71.6z M374.6,56.1c1.3,0,2.5,0.1,3.6,0.3l-0.6,4.2c-1.2-0.3-2.3-0.4-3.3-0.4c-2.4,0-4.5,1-6.2,3 c-1.7,2-2.6,4.4-2.6,7.4v16.1h-4.5v-30h3.7l0.5,5.6h0.2c1.1-2,2.5-3.5,4-4.5C371,56.6,372.7,56.1,374.6,56.1z M411.9,56.2 c3.9,0,7,1.3,9.2,4c2.2,2.7,3.3,6.5,3.3,11.4c0,4.9-1.1,8.8-3.3,11.5c-2.2,2.7-5.2,4.1-9.1,4.1c-2,0-3.7-0.4-5.4-1.1 c-1.6-0.7-3-1.8-4-3.3h-0.3l-1,3.9H398V44.1h4.5v10.3c0,2.3-0.1,4.4-0.2,6.2h0.2C404.6,57.6,407.8,56.2,411.9,56.2z M411.3,60 c-3.1,0-5.3,0.9-6.7,2.7c-1.4,1.8-2.1,4.8-2.1,9c0,4.2,0.7,7.2,2.1,9.1c1.4,1.8,3.7,2.7,6.8,2.7c2.8,0,4.9-1,6.2-3 c1.4-2,2.1-5,2.1-8.8c0-3.9-0.7-6.8-2.1-8.7C416.3,60.9,414.1,60,411.3,60z M436.4,56.6v19.4c0,2.4,0.6,4.3,1.7,5.5 c1.1,1.2,2.9,1.8,5.2,1.8c3.1,0,5.4-0.9,6.9-2.6c1.5-1.7,2.2-4.5,2.2-8.4V56.6h4.5v30h-3.7l-0.7-4h-0.2c-0.9,1.5-2.2,2.6-3.9,3.4 c-1.6,0.8-3.5,1.2-5.6,1.2c-3.6,0-6.4-0.9-8.2-2.6c-1.8-1.7-2.7-4.5-2.7-8.3V56.6H436.4z M485.7,78.4c0,2.8-1,4.9-3.1,6.5 c-2.1,1.5-5,2.3-8.8,2.3c-4,0-7.1-0.6-9.3-1.9v-4.2c1.4,0.7,3,1.3,4.6,1.7c1.7,0.4,3.3,0.6,4.8,0.6c2.4,0,4.2-0.4,5.5-1.1 c1.3-0.8,1.9-1.9,1.9-3.5c0-1.2-0.5-2.2-1.5-3c-1-0.8-3-1.8-5.9-3c-2.8-1-4.8-1.9-6-2.7c-1.2-0.8-2-1.7-2.6-2.7 c-0.6-1-0.8-2.2-0.8-3.5c0-2.4,1-4.4,3-5.8c2-1.4,4.7-2.1,8.2-2.1c3.2,0,6.4,0.7,9.5,2l-1.6,3.7c-3-1.2-5.7-1.9-8.2-1.9 c-2.2,0-3.8,0.3-4.9,1c-1.1,0.7-1.6,1.6-1.6,2.8c0,0.8,0.2,1.5,0.6,2.1c0.4,0.6,1.1,1.1,2,1.6c0.9,0.5,2.7,1.2,5.2,2.2 c3.6,1.3,6,2.6,7.2,3.9C485.1,74.8,485.7,76.5,485.7,78.4z M497.5,86.6H493v-30h4.5V86.6z M492.6,48.5c0-1,0.3-1.8,0.8-2.3 c0.5-0.5,1.1-0.7,1.9-0.7c0.7,0,1.4,0.2,1.9,0.7c0.5,0.5,0.8,1.2,0.8,2.3c0,1-0.3,1.8-0.8,2.3c-0.5,0.5-1.2,0.7-1.9,0.7 c-0.8,0-1.4-0.2-1.9-0.7C492.8,50.3,492.6,49.5,492.6,48.5z M527.5,86.6V67.2c0-2.4-0.6-4.3-1.7-5.5c-1.1-1.2-2.9-1.8-5.2-1.8 c-3.1,0-5.4,0.8-6.9,2.5c-1.5,1.7-2.2,4.5-2.2,8.4v15.7H507v-30h3.7l0.7,4.1h0.2c0.9-1.5,2.2-2.6,3.9-3.4c1.7-0.8,3.5-1.2,5.6-1.2 c3.6,0,6.3,0.9,8.1,2.6c1.8,1.7,2.7,4.5,2.7,8.3v19.6H527.5z M553.8,87.2c-4.4,0-7.9-1.3-10.5-4c-2.6-2.7-3.8-6.4-3.8-11.2 c0-4.8,1.2-8.7,3.6-11.5c2.4-2.8,5.6-4.3,9.6-4.3c3.8,0,6.7,1.2,8.9,3.7c2.2,2.5,3.3,5.7,3.3,9.8v2.9h-20.6c0.1,3.5,1,6.2,2.7,8 c1.7,1.8,4.1,2.7,7.1,2.7c3.2,0,6.4-0.7,9.6-2v4c-1.6,0.7-3.1,1.2-4.6,1.5C557.6,87,555.9,87.2,553.8,87.2z M552.6,59.9 c-2.4,0-4.3,0.8-5.8,2.4c-1.4,1.6-2.3,3.7-2.5,6.5H560c0-2.9-0.6-5-1.9-6.6C556.8,60.7,555,59.9,552.6,59.9z M591.8,78.4 c0,2.8-1,4.9-3.1,6.5c-2.1,1.5-5,2.3-8.8,2.3c-4,0-7.1-0.6-9.3-1.9v-4.2c1.4,0.7,3,1.3,4.6,1.7c1.7,0.4,3.3,0.6,4.8,0.6 c2.4,0,4.2-0.4,5.5-1.1c1.3-0.8,1.9-1.9,1.9-3.5c0-1.2-0.5-2.2-1.5-3c-1-0.8-3-1.8-5.9-3c-2.8-1-4.8-1.9-6-2.7 c-1.2-0.8-2-1.7-2.6-2.7c-0.6-1-0.8-2.2-0.8-3.5c0-2.4,1-4.4,3-5.8c2-1.4,4.7-2.1,8.2-2.1c3.2,0,6.4,0.7,9.5,2l-1.6,3.7 c-3-1.2-5.7-1.9-8.2-1.9c-2.2,0-3.8,0.3-4.9,1c-1.1,0.7-1.6,1.6-1.6,2.8c0,0.8,0.2,1.5,0.6,2.1c0.4,0.6,1.1,1.1,2,1.6 c0.9,0.5,2.7,1.2,5.2,2.2c3.6,1.3,6,2.6,7.2,3.9C591.2,74.8,591.8,76.5,591.8,78.4z M618.4,78.4c0,2.8-1,4.9-3.1,6.5s-5,2.3-8.8,2.3 c-4,0-7.1-0.6-9.3-1.9v-4.2c1.4,0.7,3,1.3,4.6,1.7c1.7,0.4,3.3,0.6,4.8,0.6c2.4,0,4.2-0.4,5.5-1.1c1.3-0.8,1.9-1.9,1.9-3.5 c0-1.2-0.5-2.2-1.5-3c-1-0.8-3-1.8-5.9-3c-2.8-1-4.8-1.9-6-2.7c-1.2-0.8-2-1.7-2.6-2.7c-0.6-1-0.8-2.2-0.8-3.5c0-2.4,1-4.4,3-5.8 c2-1.4,4.7-2.1,8.2-2.1c3.2,0,6.4,0.7,9.5,2l-1.6,3.7c-3-1.2-5.7-1.9-8.2-1.9c-2.2,0-3.8,0.3-4.9,1c-1.1,0.7-1.6,1.6-1.6,2.8 c0,0.8,0.2,1.5,0.6,2.1c0.4,0.6,1.1,1.1,2,1.6c0.9,0.5,2.7,1.2,5.2,2.2c3.6,1.3,6,2.6,7.2,3.9C617.7,74.8,618.4,76.5,618.4,78.4z"></path> <path class="st0" d="M220.7,60.7l4.4-1c0.1,0,0.2-0.1,0.4-0.1c1.2-0.3,2.3-1.1,2.9-2.2c0.7-1.1,0.9-2.4,0.6-3.6c0,0,0-0.1,0-0.1 c-0.1-0.6-0.4-1.2-0.8-1.7c-0.5-0.6-1.1-1.2-1.8-1.6c-0.8-0.5-1.7-0.9-2.6-1.2l-4.9-1.8c-2.7-1-5.5-2-8.2-3 c-1.8-0.6-3.3-1.2-4.6-1.6c-0.2-0.1-0.5-0.2-0.7-0.2c-1.6-0.5-2.7-0.7-3.7-0.7c-0.6,0-1.3,0.1-1.9,0.3c-0.6,0.3-1.2,0.6-1.6,1.1 c-0.2,0.3-0.4,0.5-0.6,0.8c-0.2,0.3-0.4,0.6-0.5,0.9c-0.2,0.3-0.3,0.7-0.4,1c-0.9,2.7-1.4,5.5-1.3,8.3c0,2.5,0.1,5.8,1.5,8 c0.3,0.6,0.8,1.1,1.3,1.4c1,0.7,2,0.8,3.1,0.9c1.6,0.1,3.1-0.3,4.6-0.6L220.7,60.7L220.7,60.7z"></path> <path class="st0" d="M270.4,37.2c-1.2-2.5-2.9-4.9-4.8-6.9c-0.3-0.3-0.5-0.5-0.8-0.7c-0.3-0.2-0.5-0.4-0.8-0.6 c-0.3-0.2-0.6-0.3-0.9-0.4c-0.6-0.2-1.3-0.4-1.9-0.3c-0.6,0-1.3,0.2-1.8,0.5c-0.8,0.4-1.8,1.1-3,2.2c-0.2,0.2-0.4,0.4-0.6,0.5 c-1,0.9-2.1,2.1-3.5,3.5c-2.1,2.1-4.1,4.2-6.1,6.3l-3.6,3.7c-0.7,0.7-1.3,1.4-1.8,2.2c-0.5,0.7-0.8,1.4-0.9,2.2 c-0.1,0.6-0.1,1.2,0,1.8c0,0,0,0.1,0,0.1c0.3,1.2,1,2.3,2.1,3c1.1,0.7,2.4,0.9,3.6,0.7c0.2,0,0.4-0.1,0.4-0.1l19.2-4.4 c1.5-0.3,3.1-0.7,4.4-1.5c0.9-0.5,1.8-1.1,2.4-2.1c0.3-0.6,0.5-1.2,0.6-1.9C272.9,42.5,271.5,39.5,270.4,37.2z"></path> <path class="st0" d="M236,45.3c1.4-1.7,1.4-4.3,1.5-6.5c0.4-7.1,0.8-14.2,1.2-21.3c0.1-2.7,0.4-5.3,0.3-8.1 c-0.1-2.2-0.2-4.8-1.6-6.6c-2.5-3.2-7.8-3-11.5-2.5c-1.1,0.2-2.2,0.4-3.3,0.6c-1.1,0.3-2.2,0.6-3.3,0.9C215.7,3,210.8,5,210,9.1 c-0.5,2.3,0.6,4.6,1.5,6.7c1,2.5,2.5,4.8,3.8,7.1c3.4,6.2,7,12.4,10.5,18.6c1,1.9,2.2,4.2,4.2,5.2c0.1,0.1,0.3,0.1,0.4,0.2 c0.9,0.3,1.9,0.4,2.8,0.2c0.1,0,0.1,0,0.2,0c0.9-0.2,1.7-0.7,2.3-1.4C235.8,45.5,235.9,45.4,236,45.3z"></path> <path class="st0" d="M234.3,64.3c-0.5-0.8-1.3-1.3-2.2-1.6c-0.9-0.3-1.9-0.3-2.7,0c-0.2,0.1-0.4,0.2-0.6,0.3 c-0.3,0.2-0.6,0.3-0.9,0.5c-0.8,0.6-1.5,1.4-2.1,2.1c-0.2,0.2-0.3,0.5-0.5,0.6l-3.1,4.2c-1.8,2.4-3.5,4.8-5.2,7.2 c-1.1,1.6-2.1,2.9-2.8,4c-0.1,0.2-0.3,0.5-0.4,0.7c-0.9,1.4-1.4,2.4-1.7,3.4c-0.2,0.6-0.3,1.3-0.2,1.9c0.1,0.7,0.3,1.3,0.7,1.9 c0.2,0.3,0.4,0.6,0.6,0.8c0.2,0.3,0.5,0.5,0.7,0.7c0.3,0.3,0.5,0.5,0.8,0.7c2.1,1.5,4.5,2.5,6.9,3.4c2,0.7,4.2,1.1,6.3,1.2 c0.4,0,0.7,0,1.1,0c0.3,0,0.7-0.1,1-0.1c0.3-0.1,0.7-0.2,1-0.3c0.6-0.2,1.2-0.6,1.7-1.1c0.5-0.5,0.8-1,1-1.6c0.4-0.9,0.6-2,0.7-3.7 c0-0.2,0-0.5,0.1-0.8c0.1-1.4,0.2-3,0.3-4.9c0.1-3,0.3-5.9,0.4-8.8c0,0,0.2-5.2,0.2-5.2c0-1.2,0-2.5-0.3-3.7 C234.8,65.3,234.6,64.8,234.3,64.3z"></path> <path class="st0" d="M269.2,72.5c-0.6-0.7-1.6-1.4-3-2.3c-0.2-0.1-0.5-0.3-0.7-0.4c-1.2-0.7-2.6-1.5-4.3-2.4 c-2.6-1.4-5.2-2.8-7.8-4.2l-4.6-2.5c-0.2-0.1-0.5-0.2-0.7-0.4c-0.9-0.4-1.8-0.8-2.8-1c-0.3-0.1-0.7-0.1-1-0.1c-0.2,0-0.4,0-0.7,0 c-0.9,0.1-1.8,0.6-2.5,1.2c-0.7,0.7-1.1,1.5-1.3,2.4c-0.1,0.6,0,1.2,0.1,1.8c0.2,1.2,0.8,2.4,1.4,3.5l2.5,4.6 c1.4,2.6,2.8,5.2,4.2,7.8c0.9,1.7,1.7,3.1,2.4,4.3c0.1,0.2,0.3,0.5,0.4,0.7c0.9,1.4,1.6,2.3,2.3,3c0.5,0.4,1,0.8,1.6,1 c0.6,0.2,1.3,0.3,2,0.2c0.3,0,0.7-0.1,1-0.2c0.3-0.1,0.7-0.2,1-0.3c0.3-0.1,0.7-0.3,1-0.5c1.9-1,3.6-2.3,5.2-3.8 c1.8-1.8,3.5-3.8,4.8-6.1c0.2-0.3,0.3-0.7,0.5-1c0.1-0.3,0.2-0.6,0.3-1c0.1-0.3,0.1-0.7,0.2-1c0.1-0.7,0-1.3-0.2-2 C270,73.5,269.7,72.9,269.2,72.5z"></path> <path class="st1" d="M109.5,27.5c0-3.8,3.1-6.9,6.9-6.9c3.7,0,6.7,3.1,6.9,7v54c0,3.8-3.1,6.9-6.9,6.9c-3.9,0-6.9-3.1-6.9-6.9V27.5z M103.1,60.9c-0.1,1.1-0.3,3.1-1.7,4.5c-1.5,1.6-3.5,1.9-4.7,1.9c-4.9,0-9.8,0-14.7,0.1h0c-4.9,0-9.8,0-14.8,0.1 c0.4,1.3,1.3,3.4,3.2,5.3c1.2,1.1,2.3,1.8,2.8,2c0.6,0.4,2.6,1.4,5.2,1.4c2.7,0,5.1-0.9,7.4-2l0.2-0.1c1.6-0.8,3.3-1.7,5-2 c1.7-0.3,3.5,0.1,4.9,1.2c1.6,1.4,2.3,3.4,1.7,5.5c-0.7,2.4-2.7,4.4-4.8,5.6c-1.2,0.7-2.5,1.3-3.8,1.8c-1.7,0.6-3.4,1-5.1,1.3 c-1.7,0.3-3.5,0.4-5.3,0.3c-0.9,0-1.8,0-2.7-0.1c-1-0.1-1.9-0.3-2.8-0.5c-1.5-0.3-2.9-0.8-4.3-1.4c-1.3-0.6-2.7-1.3-3.9-2.2 c-1.2-0.9-2.4-1.9-3.4-2.9c-1-1.1-2-2.3-2.8-3.5c-2.9-4.4-4.2-9.8-4-15.1c0.2-5.1,1.9-10.3,5.1-14.5c0.3-0.5,0.7-1,1.1-1.4 c0.2-0.2,0.3-0.4,0.5-0.5c3.8-4.7,9-6.2,11.1-6.8l0.1,0c6.1-1.7,11.1-0.6,13.2,0c1,0.3,6.8,2,11.2,6.8c0.2,0.2,0.8,0.9,1.6,1.9 c2.8,3.8,3.8,7.4,4.1,8.6l0,0C102.8,57.3,103.1,58.9,103.1,60.9z M71.5,52c-3.1,2.5-4,5.7-4.2,6.8h23.4c-0.2-1-1.1-4.2-4.2-6.8 c-3.2-2.5-6.5-2.7-7.5-2.7C78,49.3,74.7,49.5,71.5,52z M160.6,37.8c-6.1,0-11.7,2.7-15.7,7.2v-0.2c-0.2-3.6-3.2-6.5-6.8-6.5 c-3.8,0-6.9,3.1-6.9,6.9v51.5c0,3.8,3.1,6.9,6.9,6.9c3.8,0,6.9-3.1,6.9-6.9v-2V80.7c4,4.4,9.5,7.2,15.7,7.2 c12.3,0,22.3-11.1,22.3-24.9C183,49.1,173,37.8,160.6,37.8z M157.6,76.6c-7,0-12.7-6.1-12.7-13.6c0-7.6,5.6-13.7,12.7-13.7 c7,0,12.7,6.1,12.7,13.7C170.3,70.6,164.6,76.6,157.6,76.6z M44.2,66.5l-2.3,4.9c-1,2.1-2,4.3-3,6.5c-0.3,0.7-0.6,1.4-0.9,2.1 c-4.3,9.5-9.4,20.8-20.5,23.2C12.1,104.4,4,102.8,1,97.8c-3-5.1,1.5-10.9,7.2-9.6c0.9,0.2,1.8,0.6,2.7,1.1c1.5,0.7,3,1.5,4.7,1.2 c1.6-0.3,2.5-1.4,3.8-2.8c1.7-2,2.5-4.1,2.8-5.3c0-0.1-0.1-0.1-0.1-0.2c0-0.1-0.1-0.1-0.1-0.2c-1.4-2.6-2.6-4.9-3.6-6.9 c-0.7-1.3-1.2-2.4-1.7-3.3c-1-1.9-1.8-3.3-2.3-4.4c-1.7-3.2-2-3.8-2.8-5.2C9.8,59,8,55.9,6.2,52.9c-2-3.3-4-7-2.4-10.9 c1.3-3.2,4.8-4.8,8.1-3.8c3.5,1,5,4.3,6.4,7.4c0.3,0.6,0.5,1.1,0.8,1.6c2.3,4.6,4.6,9.1,6.8,13.7c0.2,0.5,0.5,1.1,0.9,1.8 c0.3,0.7,0.7,1.4,1.1,2.3c0.2,0.4,0.4,0.9,0.6,1.2c0.2,0.5,0.4,0.9,0.6,1.2c1-2.6,2.1-5.2,3.2-7.8c1.1-2.6,2.1-5.2,3.2-7.8 c0-0.1,0.3-0.7,0.7-1.5c0.3-0.7,0.7-1.6,1.2-2.6c0.1-0.4,0.3-0.7,0.5-1.1c1.4-3.4,3.1-7.5,6.8-8.6c2.7-0.8,5.7,0.3,7.3,2.5 c0.8,1.1,1.1,2.4,1.2,3.7c0,2.8-1.3,5.9-2.5,8.5c-0.3,0.6-0.6,1.3-0.8,1.8c0,0-0.1,0.1-0.1,0.3c-0.3,0.7-1.2,2.7-2.8,6 c-0.6,1.2-1.1,2.4-1.6,3.5C44.8,65.2,44.5,65.8,44.2,66.5z"></path> </svg> 